<?xml version="1.0" encoding="utf-8"?>
<!-- Generator: Adobe Illustrator 15.1.0, SVG Export Plug-In . SVG Version: 6.00 Build 0)  -->
<!DOCTYPE svg PUBLIC "-//W3C//DTD SVG 1.1//EN" "http://www.w3.org/Graphics/SVG/1.1/DTD/svg11.dtd">
<svg version="1.1" id="Layer_1" xmlns="http://www.w3.org/2000/svg" xmlns:xlink="http://www.w3.org/1999/xlink" x="0px" y="0px"
	 width="32px" height="32px" viewBox="0 0 32 32" enable-background="new 0 0 32 32" xml:space="preserve">
<rect fill="#3498DB" width="32" height="32"/>
<path fill="#FFFFFF" d="M8.392,16.494c0-0.229,0.083-0.426,0.247-0.592l5.833-5.833c0.161-0.161,0.356-0.241,0.586-0.241
	c0.234,0,0.433,0.08,0.591,0.241l5.833,5.833c0.16,0.161,0.241,0.358,0.241,0.592c0,0.23-0.081,0.428-0.241,0.59
	s-0.355,0.244-0.586,0.244c-0.227,0-0.424-0.08-0.592-0.242l-5.247-5.246l-5.241,5.246c-0.169,0.162-0.366,0.242-0.592,0.242
	c-0.23,0-0.426-0.082-0.589-0.244S8.392,16.725,8.392,16.494z M8.392,7.328c0-0.229,0.081-0.427,0.244-0.589
	s0.359-0.244,0.589-0.244h11.667c0.229,0,0.427,0.082,0.589,0.244s0.244,0.359,0.244,0.589s-0.082,0.427-0.244,0.589
	s-0.359,0.244-0.589,0.244H9.225c-0.23,0-0.426-0.082-0.589-0.244S8.392,7.558,8.392,7.328z"/>
<path fill="#FFFFFF" d="M15.058,25.244c-0.229,0-0.427-0.08-0.589-0.244c-0.161-0.162-0.244-0.359-0.244-0.588V12.745
	c0-0.229,0.082-0.427,0.244-0.589s0.36-0.244,0.589-0.244c0.229,0,0.427,0.082,0.589,0.244s0.244,0.359,0.244,0.589v11.667
	c0,0.229-0.082,0.426-0.244,0.588C15.485,25.164,15.288,25.244,15.058,25.244z"/>
</svg>
